<?xml version="1.0" encoding="UTF-8" standalone="no"?>
<!DOCTYPE svg PUBLIC "-//W3C//DTD SVG 1.1//EN"
 "http://www.w3.org/Graphics/SVG/1.1/DTD/svg11.dtd">
<!-- Generated by graphviz version 15.1.0 (20260618.0150)
 -->
<!-- Title: ModuleLayerDependencies Pages: 1 -->
<svg width="310pt" height="411pt"
 viewBox="0.00 0.00 310.00 411.00" xmlns="http://www.w3.org/2000/svg" xmlns:xlink="http://www.w3.org/1999/xlink">
<g id="graph0" class="graph" transform="scale(1 1) rotate(0) translate(4 407)">
<title>ModuleLayerDependencies</title>
<polygon fill="white" stroke="none" points="-4,4 -4,-407 305.5,-407 305.5,4 -4,4"/>
<g id="clust1" class="cluster">
<title>cluster_kernel</title>
<path fill="none" stroke="#d1d5db" d="M24.25,-8C24.25,-8 281.5,-8 281.5,-8 287.5,-8 293.5,-14 293.5,-20 293.5,-20 293.5,-216 293.5,-216 293.5,-222 287.5,-228 281.5,-228 281.5,-228 24.25,-228 24.25,-228 18.25,-228 12.25,-222 12.25,-216 12.25,-216 12.25,-20 12.25,-20 12.25,-14 18.25,-8 24.25,-8"/>
<text xml:space="preserve" text-anchor="middle" x="152.88" y="-214.5" font-family="Helvetica,sans-Serif" font-size="10.00">kernel</text>
</g>
<g id="clust2" class="cluster">
<title>cluster_refindery</title>
<path fill="none" stroke="#d1d5db" d="M20,-236C20,-236 281.5,-236 281.5,-236 287.5,-236 293.5,-242 293.5,-248 293.5,-248 293.5,-383 293.5,-383 293.5,-389 287.5,-395 281.5,-395 281.5,-395 20,-395 20,-395 14,-395 8,-389 8,-383 8,-383 8,-248 8,-248 8,-242 14,-236 20,-236"/>
<text xml:space="preserve" text-anchor="middle" x="150.75" y="-381.5" font-family="Helvetica,sans-Serif" font-size="10.00">refindery</text>
</g>
<!-- kernel/public -->
<g id="node1" class="node">
<title>kernel/public</title>
<path fill="#f3f4f6" stroke="#374151" d="M62.25,-118C62.25,-118 32.25,-118 32.25,-118 26.25,-118 20.25,-112 20.25,-106 20.25,-106 20.25,-94 20.25,-94 20.25,-88 26.25,-82 32.25,-82 32.25,-82 62.25,-82 62.25,-82 68.25,-82 74.25,-88 74.25,-94 74.25,-94 74.25,-106 74.25,-106 74.25,-112 68.25,-118 62.25,-118"/>
<text xml:space="preserve" text-anchor="middle" x="47.25" y="-96.12" font-family="Helvetica,sans-Serif" font-size="10.00" fill="#111827">public</text>
</g>
<!-- kernel/application -->
<g id="node2" class="node">
<title>kernel/application</title>
<path fill="#dbeafe" stroke="#374151" d="M174.25,-52C174.25,-52 135.75,-52 135.75,-52 129.75,-52 123.75,-46 123.75,-40 123.75,-40 123.75,-28 123.75,-28 123.75,-22 129.75,-16 135.75,-16 135.75,-16 174.25,-16 174.25,-16 180.25,-16 186.25,-22 186.25,-28 186.25,-28 186.25,-40 186.25,-40 186.25,-46 180.25,-52 174.25,-52"/>
<text xml:space="preserve" text-anchor="middle" x="155" y="-30.12" font-family="Helvetica,sans-Serif" font-size="10.00" fill="#111827">application</text>
</g>
<!-- kernel/public&#45;&gt;kernel/application -->
<g id="edge2" class="edge">
<title>kernel/public&#45;&gt;kernel/application</title>
<path fill="none" stroke="#4b5563" stroke-dasharray="1,5" d="M74.66,-83.52C87.58,-75.45 103.34,-65.62 117.4,-56.84"/>
<polygon fill="#4b5563" stroke="#4b5563" points="118.65,-58.95 123.29,-53.17 116.05,-54.79 118.65,-58.95"/>
</g>
<!-- kernel/domain -->
<g id="node3" class="node">
<title>kernel/domain</title>
<path fill="#dcfce7" stroke="#374151" d="M273.5,-140C273.5,-140 243.5,-140 243.5,-140 237.5,-140 231.5,-134 231.5,-128 231.5,-128 231.5,-116 231.5,-116 231.5,-110 237.5,-104 243.5,-104 243.5,-104 273.5,-104 273.5,-104 279.5,-104 285.5,-110 285.5,-116 285.5,-116 285.5,-128 285.5,-128 285.5,-134 279.5,-140 273.5,-140"/>
<text xml:space="preserve" text-anchor="middle" x="258.5" y="-118.12" font-family="Helvetica,sans-Serif" font-size="10.00" fill="#111827">domain</text>
</g>
<!-- kernel/public&#45;&gt;kernel/domain -->
<g id="edge3" class="edge">
<title>kernel/public&#45;&gt;kernel/domain</title>
<path fill="none" stroke="#4b5563" stroke-dasharray="1,5" d="M74.72,-94.34C103.72,-89.1 151.45,-83.33 191.5,-92 202.38,-94.36 213.62,-98.67 223.68,-103.3"/>
<polygon fill="#4b5563" stroke="#4b5563" points="222.37,-105.39 229.74,-106.22 224.5,-100.98 222.37,-105.39"/>
</g>
<!-- kernel/infrastructure -->
<g id="node4" class="node">
<title>kernel/infrastructure</title>
<path fill="#ffedd5" stroke="#374151" d="M179.5,-140C179.5,-140 130.5,-140 130.5,-140 124.5,-140 118.5,-134 118.5,-128 118.5,-128 118.5,-116 118.5,-116 118.5,-110 124.5,-104 130.5,-104 130.5,-104 179.5,-104 179.5,-104 185.5,-104 191.5,-110 191.5,-116 191.5,-116 191.5,-128 191.5,-128 191.5,-134 185.5,-140 179.5,-140"/>
<text xml:space="preserve" text-anchor="middle" x="155" y="-118.12" font-family="Helvetica,sans-Serif" font-size="10.00" fill="#111827">infrastructure</text>
</g>
<!-- kernel/public&#45;&gt;kernel/infrastructure -->
<g id="edge4" class="edge">
<title>kernel/public&#45;&gt;kernel/infrastructure</title>
<path fill="none" stroke="#4b5563" stroke-dasharray="1,5" d="M74.66,-105.49C85.4,-107.73 98.1,-110.37 110.15,-112.88"/>
<polygon fill="#4b5563" stroke="#4b5563" points="109.53,-115.25 116.88,-114.28 110.52,-110.45 109.53,-115.25"/>
</g>
<!-- kernel/transport -->
<g id="node5" class="node">
<title>kernel/transport</title>
<path fill="#ede9fe" stroke="#374151" d="M170.12,-201C170.12,-201 139.88,-201 139.88,-201 133.88,-201 127.88,-195 127.88,-189 127.88,-189 127.88,-177 127.88,-177 127.88,-171 133.88,-165 139.88,-165 139.88,-165 170.12,-165 170.12,-165 176.12,-165 182.12,-171 182.12,-177 182.12,-177 182.12,-189 182.12,-189 182.12,-195 176.12,-201 170.12,-201"/>
<text xml:space="preserve" text-anchor="middle" x="155" y="-179.12" font-family="Helvetica,sans-Serif" font-size="10.00" fill="#111827">transport</text>
</g>
<!-- kernel/public&#45;&gt;kernel/transport -->
<g id="edge5" class="edge">
<title>kernel/public&#45;&gt;kernel/transport</title>
<path fill="none" stroke="#4b5563" stroke-dasharray="5,2" d="M71.72,-118.42C87.19,-130.56 107.59,-146.57 124.2,-159.61"/>
<polygon fill="#4b5563" stroke="#4b5563" points="122.39,-161.3 129.41,-163.7 125.41,-157.45 122.39,-161.3"/>
</g>
<!-- kernel/infrastructure&#45;&gt;kernel/domain -->
<g id="edge1" class="edge">
<title>kernel/infrastructure&#45;&gt;kernel/domain</title>
<path fill="none" stroke="#4b5563" d="M191.79,-122C201.85,-122 212.78,-122 222.78,-122"/>
<polygon fill="#4b5563" stroke="#4b5563" points="222.77,-124.45 229.77,-122 222.77,-119.55 222.77,-124.45"/>
</g>
<!-- kernel/transport&#45;&gt;kernel/domain -->
<g id="edge6" class="edge">
<title>kernel/transport&#45;&gt;kernel/domain</title>
<path fill="none" stroke="#4b5563" d="M182.4,-167.13C195.09,-159.51 210.44,-150.28 223.94,-142.17"/>
<polygon fill="#4b5563" stroke="#4b5563" points="225.19,-144.27 229.93,-138.57 222.67,-140.07 225.19,-144.27"/>
</g>
<!-- refindery/public -->
<g id="node6" class="node">
<title>refindery/public</title>
<path fill="#f3f4f6" stroke="#374151" d="M62.25,-307C62.25,-307 32.25,-307 32.25,-307 26.25,-307 20.25,-301 20.25,-295 20.25,-295 20.25,-283 20.25,-283 20.25,-277 26.25,-271 32.25,-271 32.25,-271 62.25,-271 62.25,-271 68.25,-271 74.25,-277 74.25,-283 74.25,-283 74.25,-295 74.25,-295 74.25,-301 68.25,-307 62.25,-307"/>
<text xml:space="preserve" text-anchor="middle" x="47.25" y="-285.12" font-family="Helvetica,sans-Serif" font-size="10.00" fill="#111827">public</text>
</g>
<!-- refindery/domain -->
<g id="node8" class="node">
<title>refindery/domain</title>
<path fill="#dcfce7" stroke="#374151" d="M273.5,-307C273.5,-307 243.5,-307 243.5,-307 237.5,-307 231.5,-301 231.5,-295 231.5,-295 231.5,-283 231.5,-283 231.5,-277 237.5,-271 243.5,-271 243.5,-271 273.5,-271 273.5,-271 279.5,-271 285.5,-277 285.5,-283 285.5,-283 285.5,-295 285.5,-295 285.5,-301 279.5,-307 273.5,-307"/>
<text xml:space="preserve" text-anchor="middle" x="258.5" y="-285.12" font-family="Helvetica,sans-Serif" font-size="10.00" fill="#111827">domain</text>
</g>
<!-- refindery/public&#45;&gt;refindery/domain -->
<g id="edge9" class="edge">
<title>refindery/public&#45;&gt;refindery/domain</title>
<path fill="none" stroke="#4b5563" stroke-dasharray="1,5" d="M74.45,-274.82C87.32,-268.64 103.3,-262.11 118.5,-259 150.29,-252.5 159.79,-252.13 191.5,-259 202.38,-261.36 213.62,-265.67 223.68,-270.3"/>
<polygon fill="#4b5563" stroke="#4b5563" points="222.37,-272.39 229.74,-273.22 224.5,-267.98 222.37,-272.39"/>
</g>
<!-- refindery/infrastructure -->
<g id="node9" class="node">
<title>refindery/infrastructure</title>
<path fill="#ffedd5" stroke="#374151" d="M179.5,-307C179.5,-307 130.5,-307 130.5,-307 124.5,-307 118.5,-301 118.5,-295 118.5,-295 118.5,-283 118.5,-283 118.5,-277 124.5,-271 130.5,-271 130.5,-271 179.5,-271 179.5,-271 185.5,-271 191.5,-277 191.5,-283 191.5,-283 191.5,-295 191.5,-295 191.5,-301 185.5,-307 179.5,-307"/>
<text xml:space="preserve" text-anchor="middle" x="155" y="-285.12" font-family="Helvetica,sans-Serif" font-size="10.00" fill="#111827">infrastructure</text>
</g>
<!-- refindery/public&#45;&gt;refindery/infrastructure -->
<g id="edge10" class="edge">
<title>refindery/public&#45;&gt;refindery/infrastructure</title>
<path fill="none" stroke="#4b5563" stroke-dasharray="1,5" d="M74.66,-289C85.4,-289 98.1,-289 110.15,-289"/>
<polygon fill="#4b5563" stroke="#4b5563" points="109.85,-291.45 116.85,-289 109.85,-286.55 109.85,-291.45"/>
</g>
<!-- refindery/presentation -->
<g id="node10" class="node">
<title>refindery/presentation</title>
<path fill="#fef9c3" stroke="#374151" d="M177.62,-368C177.62,-368 132.38,-368 132.38,-368 126.38,-368 120.38,-362 120.38,-356 120.38,-356 120.38,-344 120.38,-344 120.38,-338 126.38,-332 132.38,-332 132.38,-332 177.62,-332 177.62,-332 183.62,-332 189.62,-338 189.62,-344 189.62,-344 189.62,-356 189.62,-356 189.62,-362 183.62,-368 177.62,-368"/>
<text xml:space="preserve" text-anchor="middle" x="155" y="-346.12" font-family="Helvetica,sans-Serif" font-size="10.00" fill="#111827">presentation</text>
</g>
<!-- refindery/public&#45;&gt;refindery/presentation -->
<g id="edge11" class="edge">
<title>refindery/public&#45;&gt;refindery/presentation</title>
<path fill="none" stroke="#4b5563" stroke-dasharray="1,5" d="M74.66,-304.24C86.84,-311.26 101.55,-319.75 114.98,-327.49"/>
<polygon fill="#4b5563" stroke="#4b5563" points="113.68,-329.57 120.97,-330.95 116.13,-325.33 113.68,-329.57"/>
</g>
<!-- refindery/application -->
<g id="node7" class="node">
<title>refindery/application</title>
<path fill="#dbeafe" stroke="#374151" d="M66.5,-368C66.5,-368 28,-368 28,-368 22,-368 16,-362 16,-356 16,-356 16,-344 16,-344 16,-338 22,-332 28,-332 28,-332 66.5,-332 66.5,-332 72.5,-332 78.5,-338 78.5,-344 78.5,-344 78.5,-356 78.5,-356 78.5,-362 72.5,-368 66.5,-368"/>
<text xml:space="preserve" text-anchor="middle" x="47.25" y="-346.12" font-family="Helvetica,sans-Serif" font-size="10.00" fill="#111827">application</text>
</g>
<!-- refindery/infrastructure&#45;&gt;refindery/domain -->
<g id="edge7" class="edge">
<title>refindery/infrastructure&#45;&gt;refindery/domain</title>
<path fill="none" stroke="#4b5563" d="M191.79,-289C201.85,-289 212.78,-289 222.78,-289"/>
<polygon fill="#4b5563" stroke="#4b5563" points="222.77,-291.45 229.77,-289 222.77,-286.55 222.77,-291.45"/>
</g>
<!-- refindery/presentation&#45;&gt;refindery/domain -->
<g id="edge8" class="edge">
<title>refindery/presentation&#45;&gt;refindery/domain</title>
<path fill="none" stroke="#4b5563" d="M186.73,-331.53C198.52,-324.45 212.03,-316.33 224.06,-309.1"/>
<polygon fill="#4b5563" stroke="#4b5563" points="225.3,-311.21 230.03,-305.51 222.77,-307.01 225.3,-311.21"/>
</g>
</g>
</svg>
